<?xml version="1.0" standalone="no"?>
<!DOCTYPE svg PUBLIC "-//W3C//DTD SVG 20010904//EN"
 "http://www.w3.org/TR/2001/REC-SVG-20010904/DTD/svg10.dtd">
<svg version="1.0" xmlns="http://www.w3.org/2000/svg"
 width="3264.000000pt" height="1015.000000pt" viewBox="0 0 3264.000000 1015.000000"
 preserveAspectRatio="xMidYMid meet">

<g transform="translate(0.000000,1015.000000) scale(0.100000,-0.100000)"
fill="#000000" stroke="none">
<path d="M6648 8135 c-2 -3 -31 -9 -64 -14 -208 -31 -443 -198 -553 -391 -36
-63 -71 -141 -71 -157 0 -11 -4 -23 -9 -28 -14 -14 -33 -127 -38 -226 -9 -163
51 -362 152 -504 114 -159 271 -268 480 -331 82 -25 348 -25 415 -1 25 9 51
17 57 17 19 0 120 49 199 97 73 44 216 183 229 222 3 11 10 21 14 21 14 0 80
144 108 235 14 49 18 92 18 230 -1 158 -3 175 -27 245 -38 108 -57 146 -107
220 -160 235 -419 370 -707 370 -50 0 -93 -2 -96 -5z"/>
<path d="M5380 7280 c-8 -4 -44 -17 -80 -29 -69 -21 -192 -65 -225 -80 -11 -5
-47 -21 -80 -36 -33 -15 -83 -38 -111 -50 -86 -39 -254 -135 -374 -214 -247
-162 -532 -419 -716 -646 -53 -65 -204 -273 -204 -280 0 -4 -11 -21 -25 -39
-14 -18 -25 -36 -25 -40 0 -3 -11 -23 -23 -44 -52 -82 -126 -222 -170 -322 -9
-19 -26 -57 -38 -85 -12 -27 -33 -81 -46 -120 -13 -38 -27 -79 -32 -90 -8 -19
-33 -103 -52 -170 -86 -309 -124 -609 -116 -914 5 -214 17 -337 48 -506 28
-148 35 -180 54 -250 9 -33 20 -76 25 -95 4 -19 14 -51 21 -70 7 -19 23 -66
36 -105 13 -38 30 -83 38 -100 7 -16 20 -48 28 -70 19 -50 117 -252 158 -325
134 -238 309 -477 486 -660 l72 -75 115 115 c70 70 115 123 116 135 0 12 -20
40 -46 65 -37 36 -179 200 -212 245 -4 6 -25 35 -48 65 -36 50 -110 163 -158
243 -126 211 -274 591 -317 812 -6 28 -17 84 -25 125 -53 277 -53 758 1 1020
8 41 18 91 21 110 3 19 12 55 19 80 8 25 21 72 31 105 46 168 112 330 211 523
35 68 83 154 106 190 45 73 194 281 212 297 6 6 28 31 48 57 112 141 334 345
522 480 99 70 190 128 204 128 5 0 13 6 19 13 10 12 240 129 317 162 115 48
157 64 250 94 49 16 91 34 93 40 2 7 -3 33 -11 59 -8 26 -22 76 -32 112 -41
151 -48 162 -85 140z"/>
<path d="M8032 6860 c-12 -16 -22 -32 -22 -36 0 -4 -10 -21 -23 -38 -36 -49
-107 -165 -107 -175 0 -5 48 -44 106 -86 191 -138 382 -314 541 -500 71 -84
201 -269 280 -400 36 -60 163 -318 163 -332 0 -7 280 -33 358 -33 26 0 25 9
-5 85 -134 338 -277 580 -522 890 -74 93 -325 345 -431 431 -104 86 -294 224
-307 224 -5 0 -19 -13 -31 -30z"/>
<path d="M17106 6153 c-6 -21 -27 -134 -111 -618 -8 -49 -22 -126 -30 -170 -8
-44 -18 -105 -24 -135 -5 -30 -19 -109 -31 -175 -12 -66 -26 -145 -31 -175 -5
-30 -16 -93 -25 -140 -15 -87 -33 -191 -59 -338 -8 -45 -21 -119 -29 -165 -8
-45 -26 -147 -41 -227 -35 -198 -45 -254 -45 -263 0 -4 102 -6 227 -5 l228 3
12 70 c7 39 16 91 19 118 8 56 24 60 53 15 53 -86 177 -174 294 -209 85 -25
247 -35 347 -21 402 58 746 401 854 852 113 468 -39 849 -389 976 -93 34 -242
48 -356 34 -119 -14 -184 -33 -282 -81 -96 -47 -126 -68 -200 -138 -31 -30
-60 -51 -64 -47 -7 7 3 81 32 241 7 44 21 118 29 165 60 346 76 439 76 444 0
3 -101 6 -224 6 -205 0 -225 -2 -230 -17z m906 -983 c112 -34 201 -119 244
-234 26 -70 26 -265 0 -351 -42 -138 -106 -242 -204 -330 -58 -52 -70 -60
-139 -94 -90 -44 -209 -65 -291 -51 -228 39 -357 211 -339 450 32 416 385 712
729 610z"/>
<path d="M12723 5984 c2 -61 7 -77 31 -109 29 -38 95 -75 131 -74 16 0 14 3
-7 11 -36 12 -127 138 -144 197 l-14 46 3 -71z"/>
<path d="M11246 5993 c-4 -21 -13 -75 -21 -121 -37 -211 -58 -329 -80 -447 -9
-49 -23 -128 -31 -175 -8 -47 -21 -121 -29 -165 -8 -44 -21 -118 -29 -165 -8
-47 -47 -263 -86 -480 -65 -362 -78 -436 -109 -615 -6 -33 -11 -66 -11 -72 0
-10 127 -13 604 -13 l605 0 10 53 c5 28 17 93 26 142 8 50 18 102 21 118 l6
27 -372 0 c-336 0 -371 2 -377 17 -5 13 33 250 102 633 14 74 37 204 55 310
16 92 40 231 56 315 43 238 114 651 114 662 0 10 -49 13 -224 13 l-223 0 -7
-37z"/>
<path d="M6075 6011 c-11 -5 -45 -12 -75 -15 -58 -7 -161 -30 -220 -48 -75
-23 -126 -41 -160 -55 -19 -8 -44 -18 -55 -22 -34 -14 -117 -56 -180 -91 -309
-170 -566 -440 -735 -774 -64 -124 -63 -129 26 -164 67 -26 101 -40 127 -53
25 -13 109 -41 111 -37 1 2 15 32 31 68 34 74 85 163 97 168 4 2 8 8 8 13 0
40 239 299 340 369 19 13 37 27 40 31 11 14 149 94 225 129 133 63 259 105
360 121 158 24 199 28 285 28 116 0 301 -23 375 -47 17 -5 57 -18 90 -28 33
-10 64 -22 70 -26 5 -4 19 -8 32 -8 23 0 30 12 87 145 30 70 35 82 52 118 10
22 13 42 8 46 -11 11 -120 51 -154 58 -14 2 -34 8 -45 12 -20 9 -105 27 -250
55 -87 17 -452 22 -490 7z"/>
<path d="M7205 5733 c-50 -26 -76 -55 -101 -111 -28 -62 -30 -95 -8 -148 41
-100 104 -144 207 -144 54 0 70 5 110 31 72 47 92 88 92 184 0 93 -18 125 -94
176 -38 25 -54 29 -110 29 -40 -1 -78 -7 -96 -17z"/>
<path d="M24142 5579 c-504 -62 -892 -555 -893 -1134 0 -162 18 -248 78 -375
78 -161 210 -274 389 -332 59 -19 92 -22 219 -22 138 -1 157 2 235 27 130 43
295 142 369 221 54 58 54 37 -5 -257 -58 -286 -225 -449 -485 -473 -95 -8
-219 11 -284 43 -86 43 -150 117 -169 196 l-6 27 -225 0 -225 0 0 -57 c0 -81
34 -205 75 -279 65 -117 204 -222 365 -278 145 -49 420 -62 592 -27 375 77
647 318 775 686 31 87 43 144 97 460 8 50 22 129 30 178 9 48 22 124 30 170 8
45 26 147 41 227 14 80 33 186 41 235 9 50 22 124 29 165 7 41 20 116 29 165
8 50 19 115 25 145 35 196 41 235 41 251 0 18 -12 19 -224 19 l-224 0 -16 -92
c-26 -145 -27 -148 -41 -148 -8 0 -16 9 -20 20 -3 11 -33 47 -66 80 -66 65
-164 120 -261 144 -76 20 -226 27 -316 15z m281 -403 c73 -19 104 -36 163 -89
94 -85 132 -196 121 -355 -13 -186 -75 -329 -196 -451 -91 -93 -185 -143 -311
-167 -74 -14 -89 -14 -160 0 -95 20 -153 51 -213 115 -76 81 -106 167 -107
302 0 79 13 173 32 224 75 209 236 368 426 420 65 17 180 18 245 1z"/>
<path d="M26362 5580 c-368 -46 -697 -339 -828 -737 -49 -149 -67 -274 -61
-432 5 -167 19 -229 77 -346 82 -168 201 -268 385 -328 60 -19 91 -22 220 -21
144 0 216 12 290 44 11 5 43 19 70 31 68 29 170 98 229 154 26 25 51 44 54 40
3 -3 0 -40 -8 -83 -7 -42 -16 -96 -20 -119 l-7 -43 228 0 228 0 6 48 c4 26 13
79 20 117 7 39 21 113 30 165 9 52 23 131 31 175 8 44 19 105 24 135 24 141
41 232 55 312 70 399 75 426 90 508 7 41 19 107 26 145 6 39 17 99 24 135 7
36 10 68 6 73 -4 4 -106 6 -226 5 l-219 -3 -8 -30 c-4 -16 -14 -70 -22 -119
-8 -48 -18 -91 -21 -95 -4 -3 -14 5 -23 19 -8 14 -45 54 -82 90 -71 71 -159
120 -252 144 -76 19 -226 27 -316 16z m283 -404 c70 -18 111 -41 168 -94 62
-59 96 -125 113 -225 12 -69 12 -93 -1 -176 -48 -303 -236 -515 -502 -567
-230 -44 -437 95 -475 319 -20 120 5 292 59 407 114 246 403 399 638 336z"/>
<path d="M14415 5570 c-113 -24 -250 -91 -352 -172 -34 -27 -64 -45 -66 -41
-3 5 1 37 9 72 7 36 14 78 16 95 l3 31 -225 0 -225 0 -8 -35 c-4 -19 -41 -228
-82 -465 -76 -435 -91 -522 -119 -675 -9 -47 -27 -150 -41 -230 -13 -80 -29
-167 -35 -195 -5 -27 -14 -80 -20 -117 -6 -37 -13 -74 -16 -82 -5 -14 20 -16
223 -16 l229 0 13 68 c15 81 34 185 56 312 9 52 23 129 30 170 15 79 33 184
61 340 41 237 77 328 163 418 89 93 211 142 351 142 122 0 204 -32 267 -104
49 -56 73 -130 73 -229 0 -66 -59 -428 -154 -952 -8 -44 -18 -99 -21 -122 l-7
-43 225 0 224 0 6 38 c7 43 29 168 52 297 19 106 31 171 50 280 81 461 87 488
128 573 79 164 242 262 435 262 130 0 217 -37 279 -118 66 -87 77 -189 42
-389 -11 -65 -27 -155 -35 -200 -8 -46 -21 -121 -29 -168 -8 -47 -21 -122 -29
-168 -8 -45 -26 -148 -40 -229 -14 -81 -26 -154 -26 -163 0 -13 29 -15 219
-15 201 0 220 2 225 18 3 9 15 71 26 137 12 66 25 143 30 170 5 28 16 88 25
135 9 47 22 122 30 168 20 112 42 235 60 340 31 169 37 238 31 336 -16 263
-149 437 -391 512 -85 27 -351 27 -445 0 -141 -39 -291 -129 -394 -236 -37
-38 -71 -70 -76 -70 -4 0 -25 30 -46 66 -65 111 -161 186 -303 236 -43 15 -91
20 -206 23 -82 2 -168 0 -190 -5z"/>
<path d="M22255 5574 c-149 -35 -271 -90 -360 -163 -79 -63 -83 -66 -89 -60
-3 3 0 34 6 70 6 35 12 80 12 99 l1 35 -218 3 -217 2 -9 -22 c-5 -13 -17 -68
-26 -123 -9 -55 -23 -134 -30 -175 -13 -73 -35 -197 -55 -310 -5 -30 -16 -91
-24 -135 -8 -44 -22 -123 -31 -175 -9 -52 -23 -129 -30 -170 -17 -94 -43 -238
-55 -310 -24 -139 -42 -241 -56 -309 -8 -40 -14 -77 -14 -82 0 -5 102 -9 230
-9 l230 0 0 24 c0 13 6 57 14 97 14 68 32 170 56 309 5 30 17 96 25 145 27
149 44 250 61 342 41 238 95 354 207 441 99 77 162 97 307 97 105 0 120 -3
172 -28 75 -37 123 -94 148 -175 31 -101 28 -153 -30 -477 -47 -264 -89 -504
-115 -656 -8 -48 -18 -94 -21 -103 -6 -15 14 -16 222 -14 l229 3 6 40 c6 40
28 163 55 310 8 44 21 118 29 165 8 47 21 121 29 165 88 492 89 502 82 615
-13 212 -88 353 -240 452 -95 61 -168 79 -336 83 -80 2 -154 2 -165 -1z"/>
<path d="M28825 5566 c-121 -28 -254 -93 -351 -172 -59 -49 -79 -55 -69 -23
12 36 32 178 27 184 -8 8 -440 6 -445 -2 -3 -5 -41 -215 -86 -468 -45 -253
-88 -496 -96 -540 -12 -63 -104 -588 -130 -743 -4 -18 -9 -40 -12 -48 -4 -12
30 -14 225 -14 l229 0 7 38 c7 39 25 139 50 282 8 47 27 153 42 235 30 172 46
263 68 390 8 50 22 114 30 144 45 163 156 287 311 347 39 15 75 19 165 19 106
0 120 -2 172 -28 71 -35 120 -88 148 -163 19 -52 21 -73 17 -169 -3 -60 -19
-186 -36 -280 -37 -207 -127 -714 -136 -772 l-7 -43 225 0 224 0 6 38 c7 43
29 168 52 297 17 91 25 137 50 280 8 44 22 121 31 170 62 345 67 385 60 520
-12 262 -120 416 -354 503 -58 21 -87 25 -212 28 -99 3 -164 -1 -205 -10z"/>
<path d="M12682 5543 c-5 -10 -12 -36 -16 -58 -9 -56 -39 -222 -76 -430 -12
-66 -26 -145 -31 -175 -5 -30 -16 -91 -24 -135 -8 -44 -21 -120 -30 -170 -8
-49 -22 -126 -30 -170 -8 -44 -21 -118 -29 -165 -8 -47 -26 -150 -41 -230 -35
-198 -45 -254 -45 -263 0 -4 102 -6 227 -5 l227 3 147 835 c81 459 153 863
159 897 7 34 9 67 5 72 -4 7 -80 11 -220 11 -194 0 -215 -2 -223 -17z"/>
<path d="M19206 5551 c-3 -4 -12 -48 -20 -97 -9 -49 -22 -127 -30 -174 -33
-186 -45 -257 -55 -310 -5 -30 -19 -109 -31 -175 -11 -66 -30 -172 -42 -235
-28 -148 -30 -355 -5 -449 51 -190 195 -325 398 -375 88 -21 287 -21 377 0 91
22 234 93 306 151 79 64 84 68 90 62 3 -2 -1 -41 -9 -84 -8 -44 -14 -90 -15
-102 l0 -23 223 0 223 0 33 188 c55 311 59 334 75 422 34 195 78 444 101 575
14 77 33 181 41 230 21 120 42 239 53 300 6 28 10 62 10 78 l1 27 -212 0
c-117 0 -218 -4 -224 -8 -7 -4 -19 -50 -29 -102 -9 -52 -23 -133 -31 -180 -21
-118 -39 -222 -68 -385 -14 -77 -32 -182 -41 -234 -39 -223 -79 -321 -168
-411 -94 -95 -203 -140 -343 -140 -146 0 -255 58 -309 166 -28 56 -30 66 -30
179 0 66 5 143 12 170 6 28 19 93 28 145 9 52 23 129 30 170 28 154 44 248 60
340 9 52 20 113 25 135 5 22 12 66 15 98 l7 57 -220 0 c-122 0 -223 -4 -226
-9z"/>
<path d="M4535 4583 c-44 -6 -136 -51 -169 -81 -69 -65 -106 -154 -106 -260 0
-128 71 -240 192 -303 37 -20 58 -23 148 -23 95 1 110 3 155 28 28 15 63 40
78 54 60 56 106 161 107 244 0 44 -22 134 -44 176 -24 46 -94 109 -150 136
-51 24 -152 38 -211 29z"/>
<path d="M4775 3750 c-11 -5 -47 -16 -80 -25 -108 -31 -160 -47 -168 -54 -6
-6 31 -123 62 -196 24 -57 99 -206 125 -250 112 -187 319 -412 491 -537 327
-236 699 -358 1088 -358 224 0 439 37 642 109 32 11 61 21 62 21 8 0 1 36 -12
66 -8 19 -22 51 -31 72 -8 20 -19 46 -24 57 -5 11 -18 43 -29 70 -21 57 -37
64 -90 42 -135 -55 -433 -105 -561 -93 -150 14 -280 36 -355 60 -22 7 -58 19
-80 26 -39 12 -99 38 -203 87 -77 36 -216 131 -303 206 -185 160 -354 412
-429 640 -22 64 -24 67 -54 66 -17 0 -40 -4 -51 -9z"/>
<path d="M7151 2949 c-47 -24 -75 -62 -92 -122 -13 -48 -5 -83 28 -134 35 -55
82 -78 158 -78 52 0 67 4 98 28 101 76 101 217 1 293 -50 39 -131 44 -193 13z"/>
<path d="M11131 2931 c-13 -8 -31 -116 -85 -516 -9 -66 -27 -200 -41 -299 -14
-98 -22 -182 -19 -187 9 -14 154 -11 159 4 3 6 18 107 34 222 16 116 46 332
67 481 20 149 35 278 31 287 -5 13 -20 17 -69 17 -35 0 -69 -4 -77 -9z"/>
<path d="M16633 2932 c-13 -8 -32 -81 -33 -124 l0 -28 124 0 c69 0 127 -3 129
-7 3 -5 -8 -98 -24 -208 -67 -471 -87 -630 -83 -637 3 -4 41 -8 84 -8 l78 0 6
38 c3 20 29 204 56 407 28 204 53 380 56 393 4 21 8 22 129 22 142 0 139 -2
148 92 4 45 2 58 -10 62 -22 9 -646 7 -660 -2z"/>
<path d="M20963 2933 c-8 -6 -31 -137 -58 -333 -25 -179 -57 -401 -70 -494
-13 -93 -22 -173 -19 -178 7 -11 326 -10 397 2 89 14 172 56 222 112 109 122
101 306 -17 383 -26 17 -47 32 -47 35 -1 3 19 17 43 32 78 47 116 118 116 215
0 97 -63 177 -165 209 -56 18 -381 31 -402 17z m334 -173 c42 -25 54 -50 55
-110 0 -62 -26 -109 -72 -132 -39 -20 -204 -26 -215 -8 -6 9 19 212 31 253 8
26 156 25 201 -3z m-17 -415 c44 -23 60 -53 60 -115 0 -69 -26 -115 -78 -137
-44 -19 -246 -31 -256 -15 -3 5 1 61 9 123 24 178 8 159 131 159 74 0 114 -4
134 -15z"/>
<path d="M8873 2854 c-7 -3 -13 -14 -13 -24 0 -9 -7 -23 -15 -30 -8 -7 -15
-16 -15 -21 0 -21 -223 -359 -250 -379 -4 -3 -11 -13 -16 -22 -35 -65 -296
-328 -438 -442 -276 -222 -510 -350 -916 -501 -33 -13 -115 -36 -190 -55 -19
-4 -55 -14 -80 -20 -141 -38 -435 -70 -640 -70 -202 0 -502 33 -640 70 -128
34 -164 44 -265 77 -60 19 -123 41 -140 48 -73 31 -157 65 -161 65 -3 0 -25
-44 -50 -97 -25 -54 -57 -122 -71 -151 -33 -65 -32 -66 92 -117 50 -20 99 -41
110 -46 58 -24 202 -68 330 -100 183 -45 220 -52 435 -79 350 -44 854 -11
1142 76 26 8 52 14 59 14 15 0 166 45 219 65 19 8 69 26 110 41 71 25 328 142
360 164 8 5 29 16 45 25 17 8 47 25 67 37 20 13 65 41 100 62 346 215 679 536
931 899 26 37 47 72 47 77 0 4 4 10 9 12 22 8 216 372 206 387 -9 15 -336 46
-362 35z"/>
<path d="M12409 2718 l-35 -83 -77 -37 c-74 -36 -77 -39 -77 -73 l0 -35 54 0
c30 0 58 -5 61 -10 3 -6 -3 -59 -14 -118 -47 -247 -49 -277 -30 -346 24 -86
118 -128 234 -107 84 15 107 36 123 106 7 32 10 60 7 63 -3 3 -26 1 -50 -6
-68 -18 -112 -15 -136 9 -19 19 -21 29 -15 93 8 85 42 292 51 306 3 6 48 10
100 10 l94 0 12 54 c18 82 15 85 -93 88 l-93 3 4 55 c9 112 11 105 -40 108
l-46 3 -34 -83z"/>
<path d="M15823 2788 c-5 -7 -20 -40 -33 -73 -30 -78 -35 -83 -103 -115 -75
-36 -87 -47 -87 -81 0 -29 1 -29 60 -29 59 0 60 -1 60 -27 0 -16 -7 -55 -14
-88 -8 -33 -22 -114 -31 -180 -14 -95 -15 -129 -6 -161 14 -51 43 -89 84 -111
46 -24 159 -22 218 4 44 20 46 23 59 82 7 34 10 64 7 68 -4 3 -26 0 -51 -6
-61 -15 -108 -14 -132 3 -16 12 -19 26 -17 78 2 84 43 321 57 330 6 4 50 8 98
8 l87 0 10 38 c25 93 25 91 -1 97 -12 3 -59 6 -103 7 -73 3 -80 5 -78 23 1 11
5 48 9 83 l6 62 -45 0 c-24 0 -49 -6 -54 -12z"/>
<path d="M22680 2783 c-6 -10 -24 -47 -38 -83 -26 -62 -30 -66 -92 -97 -82
-40 -90 -47 -90 -83 0 -30 1 -30 54 -30 30 0 57 -4 61 -10 3 -5 -6 -73 -21
-152 -35 -188 -37 -300 -6 -349 12 -20 39 -45 60 -55 48 -24 153 -24 215 0 40
15 48 23 56 54 30 112 28 117 -31 96 -60 -21 -114 -18 -139 7 -19 19 -21 29
-15 93 8 85 42 292 51 306 3 6 49 10 100 10 l95 0 7 28 c3 15 7 45 7 67 l1 40
-95 5 -95 5 4 55 c9 111 11 105 -36 108 -32 2 -45 -1 -53 -15z"/>
<path d="M11833 2620 c-54 -24 -121 -93 -170 -173 -34 -56 -38 -59 -41 -36 -2
15 4 66 12 115 12 69 13 90 3 96 -21 14 -139 5 -148 -12 -13 -25 -99 -674 -90
-683 4 -4 41 -7 81 -5 l73 3 22 100 c52 229 151 413 243 452 40 17 69 4 78
-33 4 -14 -5 -110 -20 -212 -14 -103 -29 -215 -32 -249 l-7 -63 76 0 c42 0 78
4 81 9 3 5 19 107 36 228 35 257 38 363 12 413 -35 67 -126 88 -209 50z"/>
<path d="M13034 2619 c-144 -55 -244 -221 -244 -404 0 -101 19 -160 71 -218
55 -63 117 -91 204 -91 72 0 193 33 214 57 5 7 13 44 17 82 8 77 17 73 -86 36
-72 -27 -145 -27 -188 -1 -34 21 -79 101 -67 120 4 6 81 10 194 10 139 0 191
3 198 13 36 45 45 235 14 296 -26 50 -81 97 -128 110 -58 16 -142 12 -199 -10z
m163 -155 c42 -27 54 -104 20 -126 -7 -4 -63 -8 -125 -8 -128 0 -139 7 -107
66 23 44 45 63 92 80 42 16 85 11 120 -12z"/>
<path d="M13884 2621 c-41 -25 -74 -69 -120 -161 -20 -41 -39 -70 -41 -63 -3
7 3 58 12 113 8 56 13 105 10 110 -8 13 -142 13 -150 0 -4 -6 -22 -117 -40
-248 -18 -130 -40 -282 -48 -337 -8 -55 -11 -104 -7 -108 4 -4 40 -7 81 -5
l73 3 27 120 c42 185 94 309 154 365 18 17 42 26 78 30 l52 5 20 78 c14 58 17
82 9 95 -16 25 -73 26 -110 3z"/>
<path d="M14513 2621 c-52 -24 -123 -97 -171 -176 -45 -73 -49 -60 -28 75 12
74 13 96 3 102 -6 4 -40 8 -75 8 -55 0 -63 -3 -72 -22 -5 -13 -25 -144 -45
-293 -20 -148 -40 -295 -46 -324 -5 -30 -5 -59 -1 -63 5 -5 42 -8 82 -6 l74 3
18 84 c38 174 104 328 174 410 65 76 135 87 150 25 4 -14 -8 -130 -25 -257
-17 -128 -31 -240 -31 -249 0 -16 10 -18 74 -18 41 0 77 4 81 9 3 6 19 106 35
223 35 248 38 366 12 418 -33 66 -125 88 -209 51z"/>
<path d="M15170 2631 c-154 -47 -269 -221 -272 -411 -3 -188 108 -313 277
-314 72 0 193 33 214 57 5 7 13 44 17 82 8 77 17 73 -86 36 -72 -27 -145 -27
-188 -1 -34 21 -79 101 -67 120 4 6 81 10 194 10 139 0 191 3 198 13 18 21 36
118 36 186 0 106 -61 196 -150 220 -43 12 -136 13 -173 2z m113 -154 c45 -19
60 -41 60 -88 0 -24 -6 -45 -14 -50 -8 -5 -65 -9 -127 -9 -128 0 -139 7 -107
66 24 44 45 63 92 80 48 17 57 17 96 1z"/>
<path d="M17503 2621 c-188 -70 -304 -276 -290 -513 9 -147 53 -203 158 -202
70 1 147 40 200 104 21 25 48 56 59 70 l21 25 -6 -92 -7 -93 75 0 c74 0 75 0
81 28 6 30 86 595 89 627 3 27 -100 55 -228 61 -83 4 -109 1 -152 -15z m173
-151 c29 -12 30 -9 -24 -147 -66 -169 -158 -276 -223 -260 -35 9 -49 46 -49
131 0 218 129 339 296 276z"/>
<path d="M18449 2616 c-54 -29 -119 -99 -161 -173 -30 -54 -48 -73 -48 -53 0
6 7 55 16 110 9 54 14 105 11 114 -5 12 -21 16 -69 16 -35 0 -68 -4 -74 -8 -6
-4 -19 -63 -28 -132 -10 -69 -31 -217 -47 -330 -16 -113 -29 -213 -29 -222 0
-16 10 -18 79 -18 l79 0 22 98 c65 284 198 496 291 467 37 -12 38 -59 4 -311
-18 -131 -30 -243 -25 -247 4 -4 40 -7 81 -5 l74 3 32 225 c46 326 43 398 -17
455 -43 41 -125 46 -191 11z"/>
<path d="M19265 2616 c-47 -22 -114 -84 -162 -151 -12 -16 -24 -28 -27 -25 -2
3 0 40 6 82 15 106 13 110 -68 106 -47 -2 -69 -7 -74 -18 -5 -8 -22 -123 -40
-255 -18 -132 -47 -349 -66 -483 -19 -134 -32 -248 -29 -253 8 -11 142 -12
149 0 3 5 14 69 25 144 10 74 21 139 25 145 3 6 23 6 53 0 251 -48 481 215
461 526 -12 177 -111 249 -253 182z m56 -145 c21 -17 24 -29 27 -108 4 -94
-13 -161 -58 -227 -42 -60 -67 -71 -157 -71 -107 0 -112 6 -83 87 58 158 142
292 202 321 42 21 41 21 69 -2z"/>
<path d="M19936 2624 c-130 -40 -233 -157 -282 -319 -27 -88 -25 -254 3 -317
62 -137 259 -100 377 71 33 47 51 53 43 14 -3 -16 -9 -56 -13 -91 l-7 -63 79
3 78 3 48 330 c42 292 45 331 32 342 -22 16 -179 43 -249 42 -33 0 -82 -7
-109 -15z m123 -145 c28 -6 53 -15 57 -20 8 -14 -22 -101 -73 -208 -75 -157
-166 -228 -219 -170 -26 29 -32 148 -10 220 23 82 69 147 119 169 49 23 59 24
126 9z"/>
<path d="M21963 2625 c-66 -20 -127 -60 -178 -117 -90 -100 -128 -209 -128
-369 -1 -90 3 -112 22 -152 53 -109 189 -112 305 -6 30 27 65 66 76 85 29 45
44 44 37 -3 -3 -21 -9 -62 -13 -91 l-7 -53 79 3 78 3 48 330 c44 298 47 331
33 342 -23 16 -180 43 -250 42 -33 0 -79 -6 -102 -14z m120 -146 c34 -7 57
-17 57 -25 0 -24 -52 -159 -89 -229 -99 -191 -219 -223 -229 -61 -9 133 44
259 127 303 51 26 58 27 134 12z"/>
<path d="M23321 2621 c-98 -37 -197 -135 -243 -241 -66 -151 -62 -365 8 -435
89 -89 240 -34 360 131 12 16 24 26 28 23 3 -3 0 -42 -8 -87 -7 -45 -10 -84
-8 -87 3 -3 38 -5 78 -5 71 0 73 1 78 28 7 33 86 587 89 622 2 22 -4 26 -63
43 -36 10 -110 20 -165 23 -84 4 -109 1 -154 -15z m138 -142 c28 -6 53 -14 56
-19 7 -12 -41 -146 -81 -225 -64 -126 -130 -186 -187 -171 -33 8 -47 46 -47
130 0 133 51 239 133 277 49 22 60 23 126 8z"/>
<path d="M24061 2623 c-60 -21 -146 -106 -160 -158 -34 -124 8 -196 149 -251
107 -41 133 -89 77 -138 -30 -25 -144 -18 -205 13 -24 12 -49 20 -56 18 -12
-5 -46 -101 -46 -129 0 -37 152 -83 235 -73 150 20 254 124 255 255 0 87 -28
119 -155 180 -85 41 -106 55 -111 76 -5 19 -1 32 15 47 29 29 114 28 195 -3
67 -26 67 -26 92 60 16 53 15 55 -6 72 -56 45 -195 60 -279 31z"/>
<path d="M4431 1990 c-193 -69 -294 -267 -232 -453 33 -101 97 -175 194 -224
45 -22 65 -26 152 -26 93 -1 104 1 161 30 62 32 140 108 168 164 63 126 37
302 -60 409 -97 107 -251 147 -383 100z"/>
</g>
</svg>
